<svg width="429" height="72.4114806134893" viewBox="0 0 360.8515650135738 60.90861562780343"
    xmlns="http://www.w3.org/2000/svg">
    <defs id="SvgjsDefs3995"></defs>
    <g id="SvgjsG3996" featurekey="Df7oLJ-0"
        transform="matrix(1.2157408679216921,0,0,1.2157408679216921,0.3647222024054656,-9.11805650941269)"
        fill="#f0f8ff">
        <path xmlns="http://www.w3.org/2000/svg"
            d="M61.7,51.2V19.7c0-1.5-1.2-2.8-2.8-2.8H47.2l1-3.4h0L49.6,9h4.1V7.5h-5.2l-1.8,6H17.1l1,3.4H6c-1.5,0-2.8,1.2-2.8,2.8v31.5  h-3.5v2.5l2.8,3.9h60l2.8-3.9v-2.5H61.7z M28.1,27.2l-0.8-5.3h4.6v5.3H28.1z M26.6,27.2h-3.8l-1.6-5.3h4.6L26.6,27.2z M31.9,20.3  h-4.9L26.3,15h5.7V20.3z M33.4,15h5.7l-0.8,5.3h-4.9V15z M33.4,21.8h4.6l-0.8,5.3h-3.8V21.8z M39.6,21.8h4.6l-1.6,5.3h-3.7  L39.6,21.8z M44.6,20.3h-4.8l0.8-5.3h5.6L44.6,20.3z M24.8,15l0.8,5.3h-4.8L19.1,15H24.8z M4.8,19.7c0-0.7,0.6-1.3,1.3-1.3h12.6  l3.1,10.3h20.4l-1.2,3.9c-0.1,0-0.2,0-0.3,0H25.5c-1.9,0-3.5,1.6-3.5,3.5c0,1.9,1.6,3.5,3.5,3.5c1.9,0,3.5-1.6,3.5-3.5  c0-0.8-0.2-1.4-0.6-2h9.4c-0.4,0.6-0.6,1.3-0.6,2c0,1.9,1.6,3.5,3.5,3.5c1.9,0,3.5-1.6,3.5-3.5c0-1.3-0.7-2.5-1.8-3.1l1.3-4.3h0  l3.1-10.3H59c0.7,0,1.3,0.6,1.3,1.3v31.5H4.8V19.7z M40.6,34c1.1,0,2,0.9,2,2c0,1.1-0.9,2-2,2c-1.1,0-2-0.9-2-2  C38.6,34.9,39.5,34,40.6,34z M27.5,36c0,1.1-0.9,2-2,2c-1.1,0-2-0.9-2-2c0-1.1,0.9-2,2-2C26.6,34,27.5,34.9,27.5,36z M63.8,53.2  l-2,2.8H3.3l-2-2.8v-0.5h62.5V53.2z"></path>
    </g>
    <g id="SvgjsG3997" featurekey="nameLeftFeature-0"
        transform="matrix(2.278645797806899,0,0,2.278645797806899,94.30338550548275,2.467450285148031)"
        fill="#393e46">
        <path
            d="M7.64 16.66 l-4.14 -7.42 l0 10.26 l-1 0 l0 -14 l6.3 11.16 l-1.16 0 z M14 19.5 l-1 0 l0 -10.26 l-3.9 6.9 l-6 -10.64 l1.14 0 l4.86 8.66 l4.9 -8.66 l0 14 z M12.26 5.5 l1.14 0 l-4.3 7.6 l-0.56 -0.94 z M5 19.5 l-1 0 l0 -8.34 l1 1.74 l0 6.6 z M11.5 19.5 l0 -6.6 l1 -1.74 l0 8.34 l-1 0 z M25.5 11.5 l0 1 l-5.5 0 l0 4.5 l6.5 0 l0 1 l-7.5 0 l0 -12.5 l7.5 0 l0 1 l-6.5 0 l0 5 l5.5 0 z M26.5 8 l-4.6 0 l-1.06 -1 l5.66 0 l0 1 z M20.5 7.359999999999999 l1 0.98 l0 2.66 l-1 0 l0 -3.64 z M25.5 14 l-3.6 0 l-1.06 -1 l4.66 0 l0 1 z M20.5 13.36 l1 0.98 l0 2.16 l-1 0 l0 -3.14 z M26.5 19.5 l-7.5 0 l0 -1 l7.5 0 l0 1 z M39.5 6.5 l-5 0 l0 13 l-1 0 l0 -13 l-3.5 0 l0 -1 l9.5 0 l0 1 z M33 8 l-3 0 l0 -1 l3 0 l0 1 z M39.5 8 l-3.16 0 l-0.98 -1 l4.14 0 l0 1 z M36 19.5 l-1 0 l0 -12.14 l1 1.04 l0 11.1 z M41.94 19.5 l4.66 -14 l1.04 0 l-3.04 9.26 l3.44 0 l0.36 1 l-4.14 0 l-1.26 3.74 l-1.06 0 z M51.76 19.5 l-3.6 -10.8 l-1.86 5.56 l-1.06 0 l2.96 -8.76 l4.6 14 l-1.04 0 z M50.14 19.5 l-0.74 -2.24 l-3.76 0 l-0.7 -1 l4.16 0 l-1.46 -4.46 l0.52 -1.54 l3.08 9.24 l-1.1 0 z M44.56 19.5 l-1.06 0 l1.06 -3 l0.64 1 z M71.38 16.66 l-4.14 -7.42 l0 10.26 l-1 0 l0 -14 l6.3 11.16 l-1.16 0 z M77.74000000000001 19.5 l-1 0 l0 -10.26 l-3.9 6.9 l-6 -10.64 l1.14 0 l4.86 8.66 l4.9 -8.66 l0 14 z M76 5.5 l1.14 0 l-4.3 7.6 l-0.56 -0.94 z M68.74000000000001 19.5 l-1 0 l0 -8.34 l1 1.74 l0 6.6 z M75.24000000000001 19.5 l0 -6.6 l1 -1.74 l0 8.34 l-1 0 z"></path>
    </g>
    <g id="SvgjsG3998" featurekey="inlineSymbolFeature-0"
        transform="matrix(0.39876304177978195,0,0,0.39876304177978195,272.01236958220215,11.01236958220218)"
        fill="#f0f8ff">
        <path xmlns="http://www.w3.org/2000/svg"
            d="M50,10L10,90h80L50,10z M50,24.909L72.546,70H42.36l3.333-6.667h16.064L50,39.814L31.575,76.667h44.304l3.333,6.666H20.788  L50,24.909z"></path>
    </g>
    <g id="SvgjsG3999" featurekey="nameRightFeature-0"
        transform="matrix(2.1267362228255036,0,0,2.1267362228255036,308.74652856845586,4.366318885872483)"
        fill="#000000">
        <path
            d="M12 10 c0 1.8 -0.76 3.26 -1.96 4.1 l1.96 5.9 l-3.64 0 l-1.72 -5 l-1.14 0 l0 5 l-3.5 0 l0 -15 l5 0 c3 0 5 2 5 5 z M7.54 12.96 c1.5 -0.2 2.46 -1.36 2.46 -2.96 c0 -1.8 -1.2 -3 -3 -3 l-2.7 0 l1.06 1 l1.64 0 c1.2 0 2 0.8 2 2 s-0.8 2 -2 2 l-3.5 0 l0 -5.5 l3.5 0 c2.1 0 3.5 1.4 3.5 3.5 c0 0.9 -0.3 1.7 -0.76 2.3 l0.76 0.76 c0.64 -0.82 1 -1.86 1 -3.06 c0 -2.7 -1.8 -4.5 -4.5 -4.5 l-4.5 0 l0 14 l1 0 l0 -6.5 l3 0 l2.16 6.5 l1.08 0 z M4 11.5 l1 0 l0 -3.1 l-1 -1 l0 4.1 z M7 11.5 c0.9 0 1.5 -0.6 1.5 -1.5 s-0.6 -1.5 -1.5 -1.5 l-1.5 0 l0 3 l1.5 0 z M9.44 13.9 c0.26 -0.16 0.46 -0.3 0.66 -0.5 l-0.7 -0.7 c-0.36 0.3 -0.74 0.5 -1.2 0.66 l2.04 6.14 l1.06 0 z M6.5 14.5 l-0.36 -1 l-1.8 0 l1.06 1 l1.1 0 z M5 19.5 l0 -4.64 l-1 -1 l0 5.64 l1 0 z M17.5 20 l0 -11.5 l-3.5 0 l0 -3.5 l10.5 0 l0 3.5 l-3.5 0 l0 11.5 l-3.5 0 z M18 19.5 l1 0 l0 -13 l5 0 l0 -1 l-9.5 0 l0 1 l3.5 0 l0 13 z M17.5 7 l-3 0 l0 1 l3 0 l0 -1 z M24 7 l-4.14 0 l0.98 1 l3.16 0 l0 -1 z M20.5 8.4 l-1 -1.04 l0 12.14 l1 0 l0 -11.1 z"></path>
    </g>
</svg>
